<svg width="53" height="63" viewBox="0 0 53 63" fill="none" xmlns="http://www.w3.org/2000/svg">
<path d="M39.0726 15.5375L6.49087 15.5375" stroke="#E5E7EB" stroke-width="11" stroke-linecap="square" stroke-linejoin="round"/>
<path d="M14.6362 47.2457L47.218 47.2457" stroke="#E5E7EB" stroke-width="11" stroke-linecap="square" stroke-linejoin="round"/>
<path d="M49.9503 14.814L36.1083 1.61204C35.4718 1.00499 34.4181 1.45613 34.4181 2.33567L34.4181 28.7397C34.4181 29.6192 35.4718 30.0704 36.1083 29.4633L49.9503 16.2613C50.3634 15.8673 50.3634 15.208 49.9503 14.814Z" fill="#E5E7EB"/>
<path d="M3.75871 47.9699L17.6007 61.1719C18.2372 61.7789 19.2909 61.3278 19.2909 60.4483L19.2909 34.0442C19.2909 33.1647 18.2372 32.7136 17.6007 33.3206L3.75872 46.5226C3.34562 46.9166 3.34562 47.5759 3.75871 47.9699Z" fill="#E5E7EB"/>
</svg>
